<svg width="560" height="560" viewBox="0 0 560 560" fill="none" xmlns="http://www.w3.org/2000/svg">
<g id="space-2 2" clip-path="url(#clip0)">
<g id="Ebene_1">
<g id="Ebene_2">
<g id="XMLID_5_">
<path id="XMLID_375_" d="M247.3 285.2C246.7 284.2 246 283 246.1 281.9C246.2 274.2 246.5 266.6 246.8 258.9C246.9 255.8 248.8 253.7 251.6 252.9C254.3 252.2 257.2 251.9 260 251.6C262.3 251.4 264.7 251.6 267.6 251.6C260.1 236.4 258 220.6 258.5 204C256.6 204.3 255.2 204.5 253.8 204.8C247.8 205.9 243.8 203.5 242 197.7C239.9 190.7 237.9 183.6 235.6 176.7C234.1 172.1 235 168.3 238.3 165C240.6 162.8 242.9 160.7 245.3 158.5C246.7 157.2 248.2 156 248.3 153.7C248.3 152.7 249.3 151.5 250.2 150.7C253.6 147.4 260 146.6 264.3 148.7C265.2 149.1 266.3 149.2 267.3 149.1C270.1 148.9 272.8 148.5 275.6 148.2C276 148.5 276.3 148.1 276.6 147.8C287.2 133.9 301.6 125.6 318.4 121.7C337.2 117.3 355.8 119.1 374 125.1C379.2 126.8 384.1 129.1 389.4 131.3C389.9 130.7 390.4 130 391 129.4C395.4 125.6 400.2 123.2 406.3 124.3C408.6 124.7 411.1 124.4 413.5 124.6C415.7 124.8 417.8 125.3 420 125.5C421.6 125.7 423.3 125.9 424.7 125.5C428.8 124.5 432.9 123.8 437 124.9C443 126.4 448.6 128.8 453.8 132.1C457.7 134.5 459.7 138 460.3 142.5C461.1 148.8 462.1 155 462.9 161.3C463.1 163.2 464 163.7 465.5 163.3C466.4 160.7 465.8 158.5 464.6 156.3C461 149.5 460.4 142.1 461.5 134.6C462.1 130.4 464.4 128.6 468.6 128.2C471.7 127.9 474.7 128.7 477.5 130.4C480.8 127.5 484.3 126.8 488.4 128.6C492.4 130.3 494.8 133.3 496.7 137.3C507.2 135 511.9 142 515.9 149.2C518.8 149 521.3 148.8 523.8 148.8C530.4 148.8 534.1 151.5 534.8 158C535.4 163.7 535.8 169.5 536.8 175.2C537.3 178 537.7 180.7 539.2 183.2C539.8 184.3 540.3 185.6 540.3 186.9C540.4 191.7 540.3 196.5 540.1 201.3C539.9 205.3 539.4 209.3 537.5 213.1C537 214.2 537.4 215.7 537.4 216.9C542.3 217.4 542.3 217.4 545.7 220.5C546.6 221.3 547.5 222.1 548.3 223C553.1 227.7 556.2 233.1 556.1 240.1C556 242.6 556.7 245.1 557 247.6C557.2 249.8 557.2 252 557.2 254.1C557.1 256.5 556.5 258.9 556.7 261.3C556.9 265.2 557.8 269.1 558 273C558.3 279.9 558.2 286.8 558.2 293.7C558.2 296.6 557.6 299.6 559.4 302.3C559.8 303 559.8 304 559.9 304.9C560 312.8 559.9 320.7 560.1 328.5C560.2 334.8 556.7 337.5 551.6 337.1C551.4 337.1 551.2 337.3 550.9 337.5C550.7 340.1 550.6 342.8 550.4 345.5C549.8 354.1 548.5 362.4 544 370C543.4 370.9 543.3 372.3 543.4 373.4C543.8 379.6 544.4 385.8 544.9 392C546.4 410.8 547.9 429.5 549.2 448.3C550.1 461.2 550.3 474.1 551.1 487C551.5 493.9 549.3 499.4 544.5 504.1C543.8 504.8 543.1 505.5 542.5 506.2C540.5 508.7 537.9 509.5 534.7 509.5C520.8 509.7 506.9 510.2 493 510.5C492.3 510.5 491.5 510.7 490.8 510.8C490.7 513.2 490.9 515.5 490.4 517.7C489.7 520.8 490.4 523.3 492.2 525.7C493.2 527 494.1 528.4 495.3 529.5C498.7 532.4 500.9 536.1 501.6 540.4C502.6 546.1 503 551.9 503.6 557.6C503.7 558.4 503.5 559.3 503.4 560C417.7 560 332.3 560 246.6 560C248 554.5 249.3 549.3 250.8 544.2C251.6 541.4 251.7 538.7 251.2 535.8C250.3 530.7 249.7 525.6 249 520.5C248.1 514.5 249.1 509 252.7 504C253.2 503.3 253.5 502.1 253.3 501.3C251.3 494.7 251.7 488.1 252.8 481.4C253.9 475 254.4 468.6 254 462.1C253.9 459.6 254.1 457 253.8 454.6C253 447.4 252 440.3 251 433.2C250.9 432.2 250.3 431.2 249.8 429.9C245.7 431.6 241.8 432.8 238.3 434.7C234.9 436.6 231.6 439 229 441.8C225.9 445.1 222.5 446.8 218 446.7C215.6 446.7 213.2 446.5 210.8 446.6C209.9 446.7 208.7 447.2 208.1 447.9C204.4 451.9 200.2 455 194.8 456.4C186.7 458.4 178.7 460.6 170.7 462.7C168.7 463.2 166.6 463.6 164.6 463.6C160.8 463.7 157.3 464.4 153.8 465.9C148.9 468 143.7 468.7 138.4 468.1C136 467.8 133.7 467.1 131.3 466.9C130.2 466.8 129.1 467.2 128 467.6C125.3 468.7 122.8 470.4 120 471.2C116.4 472.2 112.6 472.6 109.5 469.5C106 472.7 102.6 475.8 99.1 478.9C103.6 484.6 102.4 489.9 96.1 492.5C94.7 493.1 94.4 494 94 495.1C92.6 498.3 90.2 500.6 86.8 500.4C81.7 500.2 76.6 499.6 71.6 498.5C69.2 498 67 496.7 64.3 496.8C62.7 496.9 60.4 495.9 59.4 494.6C56.5 491.1 53.8 487.4 51.7 483.4C50.2 480.7 49.7 477.4 48.7 474.4C47.5 470.6 47.8 467 50 463.7C53.5 458.4 57 453 63.7 451.1C63.7 450.1 63.7 449.3 63.7 448.4C63.7 442.1 66.5 437.2 71.9 434C73.9 432.8 76.1 432.2 78.2 431.2C81.1 429.9 84 428.6 86.7 427.1C87.6 426.6 88.4 425.6 88.6 424.7C89.4 421.1 91.7 419 95 417.9C96.8 417.3 97.8 416.1 98.5 414.4C101.5 407.7 107 403.1 112.4 398.6C113.6 397.6 115.3 397.1 116.8 396.5C118.4 395.8 120.1 395.3 121.7 394.7C128.1 392.6 134 389.6 139.4 385.5C141.7 383.8 144.1 382.1 146.7 381.1C156.4 377.6 166.1 374.4 175.9 371.4C177.5 370.9 179.9 370.9 181.3 371.7C184.5 373.6 187.2 372.6 189.9 371.2C192.6 369.7 195.4 368.4 197.7 366.5C202.3 362.7 207.5 360.9 213.3 360.4C217.4 360.1 220 357.8 221 353.8C223 346.1 225 338.4 226.8 330.6C228.1 324.8 230.6 319.8 234.3 315.1C236.3 312.6 238.3 309.8 239.4 306.8C241.8 300.5 245.1 295 250.9 290.8C249.6 288.9 248.4 287.1 247.3 285.2ZM282.8 148.3C283 148 283.3 147.8 283.5 147.5C283.7 147.3 284 147.1 284.2 147C284.4 146.8 284.6 146.5 284.8 146.3C285.5 146 286.4 145.8 287 145.3C299.8 135.2 314.2 131.8 330.2 134.2C337.7 135.3 344.9 137.4 352 140.4C355.6 133.8 362.1 131.7 369.2 129C366.4 128.3 364.3 127.6 362.2 127.2C348 124.5 333.7 123.3 319.6 126.9C306.4 130.2 294.3 135.9 285 146.4C284.8 146.6 284.6 146.9 284.4 147.1C284.2 147.3 283.9 147.5 283.7 147.6C283.3 147.9 283.1 148.2 282.8 148.3C282.8 148.4 282.8 148.4 282.8 148.3ZM423.8 177.9C423.3 177.7 422.8 177.6 422.2 177.4C419.4 175.3 419.3 172.1 418.9 169.1C418 162.8 417 156.6 416.1 150.3C415.8 148.2 415 146.8 413 145.8C406.1 142.2 404.6 142.6 401.4 149.7C399.7 153.5 398 157.2 398.1 161.6C398.2 163.8 398.9 165.4 400.8 166.5C402.9 167.7 404.9 169 407.1 170C412.2 172.5 417.3 174.9 422.3 177.4C422.7 177.5 423.2 177.7 423.8 177.9C423.7 177.9 423.7 177.8 423.8 177.9ZM414.6 232.4C414.5 232.2 414.4 232.1 414.3 231.9C414.1 231.1 413.8 230.3 413.5 229.1C411.8 231.2 413.3 231.4 414.4 231.8C414.5 232.1 414.5 232.2 414.6 232.4ZM388 251.4C388.2 251.5 388.4 251.6 388.6 251.7C388.9 251.4 389.2 251.1 389.4 250.7C390.6 248.3 391.9 245.9 393.1 243.5C393.5 242.7 394 242 394.1 241.2C394.5 239 394.7 236.7 395 234.5C395.1 234.5 395.1 234.4 395.2 234.4H395.1C390.4 239.1 389.5 245.3 388 251.4ZM64.7 472.8C66.4 473.2 67.9 473.2 69.3 471.4C67.9 468.8 66.5 466.1 64.8 462.9C62.5 465.7 60.4 468.3 58.3 470.9C58.2 471.1 58.3 471.5 58.4 471.8C58.3 471.8 58.3 471.9 58.2 471.9H58.3C60.5 472.2 62.7 472.4 64.7 472.8ZM447.6 201.9C448.8 204.3 450.8 205.8 453.1 207C454 208.6 454.8 210.2 455.8 211.7C456.4 212.7 457.1 213.7 458 214.4C459.5 215.6 461.3 216.6 462.8 217.8C463.9 218.8 465.4 219.9 465.7 221.2C466.6 225 469.6 225.6 473.1 226.3C472.5 225.3 472 224.2 471.2 223.3C468.8 220.6 466.3 218 463.7 215.5C460.4 212.4 456.8 209.6 453.3 206.6C451.4 205.1 450.2 202.7 447.6 201.9ZM550.6 321.5C550.1 322.4 550.3 323.6 550.2 324.7C550.1 327 550 329.3 549.8 331.8C550.7 332 551.5 332.1 552.3 332.2C554.2 332.4 555.2 331.6 555.1 329.6C555 324.6 554.9 319.6 554.8 314.6L554.9 314.5V314.6C553.5 317 551.9 319.2 550.6 321.5ZM403.8 239.1C407.6 233 411.5 226.9 415.3 220.8C417 218.1 416.7 217.2 413.7 216C412.4 215.5 411 215.4 409.4 215.1C409.2 216.3 409.1 217.1 408.9 218C408.3 222.3 407.1 226.3 404.8 230C403.8 231.6 403.2 233.3 402.2 234.9C400.2 238.1 398.1 241.3 396 244.5C395 246 394.1 247.6 393.2 249.1C393 249.2 392.9 249.3 392.7 249.4C392.8 249.3 393 249.2 393.1 249.1C397.6 246.5 401.2 243.3 403.8 239.1ZM465.5 202C466 199.3 467.8 196.1 465.3 193.9C462.4 191.3 458.9 189.4 454.6 189.3C454.2 193.2 453.5 196.8 450.3 199.9C453.9 203 457.3 206 460.8 209.2C462.7 207.3 464.6 205.8 464.9 203.2V203.3C465.1 202.7 465.4 202.4 465.5 202ZM272.1 291.9C271.7 294 270.6 296 269.7 298C268.9 299.7 268 301.3 266.9 302.8C257.4 315.8 253.5 330.9 251.2 346.4C250.4 352.2 251.1 358.3 251.3 364.3C252 358.9 252.7 353.5 253.3 348.1C254.2 339.6 256.4 331.6 260 323.9C263.4 316.5 266.9 309.3 272.3 303.1C274.7 300.3 276 297.1 276.5 293.3C276.9 290.6 278.3 288 279.4 285.4C279.9 284.2 280.6 283.1 281.3 282C281.4 281.8 281.5 281.6 281.7 281.4C281.5 281.5 281.3 281.6 281.1 281.7C276.5 283.9 273 286.7 272.1 291.9ZM56.6 480.8C56.8 480.7 57.1 480.7 57.3 480.6C57 480 56.6 479.5 56.3 478.9C56 477.4 55.7 475.9 55.3 474.5C54.7 472.5 55 470.7 56.2 468.9C60.4 462.8 65.7 458.1 72.1 454.6C76.3 452.3 76.8 452.4 80 456.1C80.5 456.7 80.9 457.3 81.6 458.2C83.1 454.6 82.7 451.4 82.4 448.3C82.3 447 82.3 446.1 84.2 446.4C85.4 453.4 84.6 459.9 80.8 466.1C79.6 468 78.9 470.2 78.2 472.3C77.7 473.9 78.3 475.1 79.8 475.8C82.6 477 85.4 478.2 88.4 479C89.3 479.2 90.7 478.5 91.5 477.8C96.1 473.9 100.6 469.9 105 465.8C106.4 464.5 107.9 463.4 109.9 463.7C111.8 464 112.9 463.2 113.8 461.6C114.4 460.5 115.3 459.5 116.3 458.2C115 456.4 113.7 454.5 112.2 452.8C105.5 445.6 98.7 438.5 92.3 431.6C87.2 433.8 81.9 435.9 76.8 438.2C71.3 440.6 69.2 444.1 69.5 450.1C69.7 455.4 69.4 455.8 64.5 457.3C63.4 457.6 62.2 458.2 61.4 459C59.3 461.2 57.3 463.6 55.5 466C53.7 468.3 53.2 470.9 54.4 473.7C55.1 475.3 55.7 477 56.4 478.7C56.5 479.5 56.5 480.2 56.6 480.8ZM484.6 509.1C483.4 506.6 482.3 504 481.1 501.4C477.8 502.7 474.9 503.9 472 505C466.5 507 460.8 507.8 455 508.4C442.7 509.5 430.4 510.9 418.1 512.2C412.2 512.8 406.3 513.5 400.5 513.7C383.9 514.5 367.3 515.3 350.6 515.6C343.1 515.8 335.5 515 328 514.4C318.1 513.6 308.1 512.8 298.3 511.4C288 509.9 277.9 507.6 267.7 505.6C267.1 505.5 266.4 505.3 265.8 505.1C260.8 503.9 260.9 504 257.9 508.2C254.5 513 254.4 518.2 255.7 524C259.5 524.8 263.4 525.6 267.3 526.4C274.9 528 282.5 529.6 290.1 531.2C299.8 533.2 309.7 533.3 319.5 533.2C335.7 533 351.9 532.7 368.1 532.9C386.9 533.2 405.5 532 424 529.2C433.3 527.8 442.6 526.2 452.1 527.5C456.2 528 460.4 528.3 464.5 529C468.9 529.7 473.2 529.5 477.5 528.2C480.4 527.3 483.4 526.5 486 525.8C486.2 522.8 486.4 520 486.7 517.2C487.1 514.1 486.3 511.4 484.5 508.9L484.6 509.1ZM427.3 389.2C422.4 387.8 418.4 384.6 414.7 381.1C412.4 379 410 376.8 408 374.3C405.1 370.8 401.7 368.3 397.6 366.5C394.2 365 390.8 363.7 387.2 362.2C386.9 363.8 386.7 365.1 386.4 366.7C381.9 366.3 377.4 365.9 372.8 365.4C372.7 366.2 372.5 366.9 372.5 367.6C372.2 374.1 372 380.5 371.7 387C371.5 392.4 370.7 393.4 365.4 394.9C365.2 399.8 364.9 404.8 364.7 409.8C364 427.4 363.3 445 362.5 462.6C362.4 464.6 362.3 466.5 362.1 468.5C361.4 473.5 357.7 476.7 352.6 476.5C337.6 475.9 322.6 475.3 307.7 474.6C302.1 474.4 296.6 474.1 291 473.8C284.8 473.5 281.5 469.9 281.7 463.6C281.8 459 282 454.4 282.2 449.8C282.4 444.2 282.7 438.7 283 433.1C283 432.4 283 431.6 283 430.7C280.8 430.3 278.8 430.1 276.8 429.7C273.9 429.1 272.6 427.6 272.7 424.7C273.1 417.5 273.5 410.3 274.1 403.1C274.4 399.5 276.2 398.2 279.9 398.6C281.3 398.7 282.7 398.9 284.3 399.1C284.3 395.9 284.3 393 284.3 389.6C280.4 389.6 276.4 389.8 272.6 389.5C269.6 389.3 266.5 388.9 263.6 388C260.3 387 257.7 384.8 255.9 381.8C255.5 381.2 254.7 380.4 254.1 380.4C252.7 380.4 252.9 381.7 252.9 382.6C252.9 388.4 252.9 394.2 253.1 400C253.4 407.8 253.9 415.5 254.4 423.3C254.5 424.3 254.4 425.3 254.8 426.2C259.4 437.7 259.8 449.8 260.2 462C260.4 469.5 259.8 476.8 258.7 484.2C257.8 489.8 257.5 495.5 259.5 500.7C263.2 501.6 266.7 502.2 270.2 503.2C284 506.9 298.1 508.7 312.3 509.8C320 510.4 327.7 511.5 335.4 512.4C344.9 513.5 354.4 512.6 363.9 512.3C375.8 511.9 387.8 511.6 399.6 510.8C410.2 510.1 420.7 508.7 431.3 507.6C437.3 507 443.3 506.2 449.2 505.7C450.8 505.5 451.8 505.2 452.1 503.4C453.8 494.6 455.6 485.8 457.3 477C458.8 469.3 457.4 461.7 457 454.1C456.8 450.6 456.6 446.7 457.8 443.4C462 431.8 462.8 419.7 463.2 407.5C463.3 404.6 463.2 401.6 463.2 398.3C450.4 397.3 439 392.6 427.3 389.2ZM390.8 209.3C390.7 204.1 392.8 201.7 398.7 200.3C398.4 197.6 398.2 194.8 397.9 192C397.7 190.1 396.5 189.5 394.7 189.6C391.3 189.8 387.9 189.9 384.5 190C381.1 190.1 380.3 189.4 379.4 186.2C377.3 178.9 375.2 171.7 373.3 164.4C372.8 162.7 372 161.6 370.5 160.6C357.1 151.4 342.1 146.7 326.3 144.1C319.8 143.1 313.7 144.4 307.8 147C299.4 150.8 292 156 285.7 162.7C279.8 169.1 276.6 177 273.8 185.1C269.9 196.3 270 207.9 271.3 219.5C272.4 229.3 273.8 239 277.9 248.2C281.4 256 285.5 263.4 290.4 270.5C290.6 270.9 291 271.2 291.1 271.6C293.3 277.3 298.4 278.6 303.6 279.8C306.2 280.4 309 280.7 311.7 280.6C332.4 279.8 352.7 277.1 371.9 268.8C377.1 266.6 379.5 262.3 381.6 257.5C382.3 255.9 383.1 254.4 383.9 252.9C384.5 251.7 385.1 250.6 385.5 249.4C386.1 247.3 386.4 245.1 387 243C388.1 239.2 389.8 235.6 392.7 232.8C396.4 229.2 397.2 224.7 397.4 219.7C393.2 218.7 390.8 214.8 390.8 209.3ZM387.6 355.8C389.8 356.8 392 357.8 394.2 358.7C401 361.6 407.1 365.5 413.1 369.8C428.5 381.1 445.6 388.6 464.8 390.7C465.3 390.8 465.8 390.7 466.4 390.3C465.9 390 465.3 389.7 464.8 389.4C460.1 387 455.9 383.9 452 380.3C445.7 374.5 439.3 368.9 432.7 363C432.9 362.6 433.3 361.9 433.8 361C445 368.1 452.8 378.9 464.3 385.4C463.2 384.3 462.1 383.2 461.1 382C452.1 371.9 449.5 360.2 453.2 347.2C453.7 345.3 454.5 343.4 455.7 341.9C459.6 336.7 462.4 330.9 464.8 324.6C461.6 320.8 461.2 316.1 461.6 311.2C461.9 306.4 461.9 301.6 461.2 296.8C460.2 290 461.6 283.3 462.8 276.6C462.9 276.3 462.9 276 462.9 275.4C462 274.9 461.1 274.3 460.2 273.8C453.2 280.1 445.2 284.6 436.9 288.6C429.6 292.1 422.2 292.7 414.8 289.1C413.3 288.4 411.9 287.3 410.1 286.1C405.5 291.7 400.9 297.4 397.4 304C395.8 307 394.3 310 392.7 313C390.1 317.8 387 322.3 383.3 326.4C378.6 331.6 378.9 338 379.8 344.4C379.9 344.9 381 345.6 381.7 345.7C383.8 346.1 386 346.2 388.6 346.5C388.2 350 387.9 352.8 387.6 355.8ZM116.4 435.1C120.7 440 123.9 445.8 127.8 451.4C129.3 450.9 130.9 450.2 132.6 449.7C134 449.3 135.4 449 136.8 449C138.3 449 139.2 449.9 139.3 451.4C139.4 453.6 139.6 455.8 139.5 458C139.5 460.6 138.3 461.5 135.7 461.1C133.8 460.9 132 460.6 130.1 460.6C138 463.2 145.8 463.8 153.7 460.3C156.2 459.2 159.2 459 162 458.5C165.5 457.8 169.1 457.4 172.6 456.6C179.4 455 186.1 453.1 192.9 451.4C195.8 450.7 198.3 449.4 200.8 447.6C203.3 445.9 204.1 443.8 203.7 440.9C202.8 434.9 202.8 428.9 203.4 422.9C203.8 418.8 202.9 414.9 200.6 411.3C196.8 405.3 193.6 399 191.5 392.1C190.6 389.3 189.1 386.7 187.7 384.1C186 381 183.2 379 180 377.7C178.8 377.2 177.1 377.3 175.9 377.7C168.2 380.1 160.4 382.4 152.9 385.3C149.3 386.7 145.8 388.7 142.6 390.9C136.8 395.1 130.5 398.3 123.7 400.6C121.8 401.2 120 401.8 118.2 402.6C116.8 403.2 115.2 403.8 114.2 404.9C109.5 409.9 103.8 414.1 102.2 421.7C106.9 426.2 112.2 430.2 116.4 435.1ZM522.7 270.5C514 271.6 505.7 269.8 497.5 267.6C489.8 265.5 482.2 263 474.6 260.6C469.2 258.9 464.6 255.8 460.8 251.5C460.5 251.1 460.1 250.8 459.5 250.1C459 254.3 459.9 257.7 461.6 260.8C462.7 262.7 463.9 264.6 465.2 266.3C467.4 269.1 468 272.1 467.4 275.5C466.6 280.1 465.8 284.8 465.4 289.4C465.1 292.2 465.5 295.1 465.6 297.9C465.7 302 465.9 306.2 466 310.3C466.1 312.8 465.9 315.3 466.3 317.8C466.5 319.2 467.2 320.9 468.2 321.9C476.7 330.2 485.7 337.8 497.5 341C509.2 344.2 520.2 341.5 530.8 336.3C533.3 335.1 534.8 333 534.7 330.3C534.6 326.8 534.3 323.3 533.6 319.9C532.1 312.5 529.9 305.2 530.7 297.6C531 294.9 531.2 292.2 531.4 289.4C531.8 282.7 530.6 276.4 528 269.9C526 270.2 524.3 270.3 522.7 270.5ZM458.4 532.7C457.9 531.1 456.7 530.9 455.4 530.7C447.6 529.5 439.9 529.9 432.2 530.9C422.4 532.2 412.7 533.8 402.9 534.5C392.2 535.3 381.5 535.5 370.8 535.7C354 535.9 337.1 535.5 320.3 536C304.2 536.5 288.5 534.1 272.9 530.5C267.5 529.2 262 528.2 256.1 527C256.4 529.1 256.4 531.1 256.9 532.9C258.5 538.9 258.1 544.7 255.9 550.5C255.3 552.2 255 554.1 254.4 556.1C323.2 556.1 391.8 556.1 460.8 556.1C461.4 548.1 461 540.3 458.4 532.7ZM459 344.9C453.6 353.8 454.9 367.5 461.8 376.4C466.8 382.9 473 388 480.2 391.9C483 393.4 486.1 394.2 489.3 394.1C499.5 393.9 509.5 391.9 519.3 389.3C521 388.9 522.7 387.7 524 386.4C533.4 376.9 541.8 366.7 543.8 352.9C544.7 346.8 544.8 340.5 545.2 334.3C545.4 331.9 545.4 329.5 545 326.8C544.3 327.6 543.6 328.2 543.1 329.1C536.5 340.3 525.8 344.2 513.9 346.1C502.5 347.8 491.9 345.4 482.4 338.9C477.5 335.6 472.8 332.1 467.6 328.3C466.1 334.7 462.3 339.6 459 344.9ZM519.5 505.4C525.4 505.1 531 504.9 536.7 504.6C537 504.6 537.4 504.5 537.6 504.3C541.6 500 546.7 496.5 546.3 489.6C545.5 474.4 545 459.2 544.1 444.1C543.3 431.1 542.1 418.2 541.1 405.2C540.4 395.9 539.7 386.7 539 377.4C539 377.2 538.8 377.1 538.5 376.7C531.8 385.8 525.4 395.1 512.3 395.3C514.7 432.4 517.1 468.7 519.5 505.4ZM500.2 179.8C499.8 179.7 499.1 179.6 499 179.3C497.3 175 493.3 176.7 490.2 176C488.8 175.7 487.3 176 486 175.8C484.5 175.6 482.7 176 481.9 173.9C481.8 173.5 480.5 173.5 479.8 173.5C478 173.4 476.1 173.5 474.2 173.5C471 178.3 472.1 183.1 475 188.1C473.9 188.9 473 189.7 471.9 190.4C470 191.7 469 193 469.2 195.7C469.7 201.4 468.4 206.8 463.3 210.9C465.6 213.5 467.9 216 470.1 218.4C471 217.7 471.8 216.9 472.8 216.6C481.5 213.5 490.5 212.8 499.8 212.9C500.7 216.1 501.5 219.3 502.5 222.9C513 220.4 524.3 219.9 531 208.5C514.2 210.1 498.2 207.9 482.2 203.9C482.5 202.9 482.7 202.3 483 201.2C499 205 515.1 207.4 531.9 205.5C532.1 202.3 532.4 198.5 532.7 194.7C532.8 194 533.1 193.3 533.4 192.6C534 191.2 534.8 189.9 535.3 188.4C535.5 187.7 535.4 186.3 535 186.1C534.3 185.7 533.1 185.7 532.4 186C529.1 187.7 525.6 188.6 522 187.9C519.7 187.4 517.5 186.5 514.9 185.6C515.5 184.5 515.9 183.8 516.3 182.9C521.8 185.3 527.1 185.8 532.6 182.6C532.4 181 532.3 179.5 532.1 177.6C526.3 180.5 520.8 180.5 515.2 177.4C515.7 175.8 516.1 175 518.1 175.6C522.9 177.1 527.6 176.9 532.2 174.1C531.8 172.9 531.5 171.8 531.1 170.6C525.5 171.7 520.1 172.2 515.1 168.4C515.6 167.7 516 167 516.2 166.7C519 167.3 521.5 168 524.1 168.3C526.1 168.5 528.2 168.1 530.3 168C531 164.3 530.9 161.1 530 157.9C529.3 155.2 528.2 154.4 525.4 154.1C518.7 153.4 516.8 154.8 515.2 161.3C515.1 161.9 514.9 162.5 514.7 163.7C513.4 161.6 512.4 160 511.4 158.3C509.2 158.5 507 158.9 504.9 159C502.9 159.1 500.8 159 498.2 159C499.2 161.1 500.2 163.3 501.3 165.3C501.7 165.9 502.8 166.2 503.6 166.3C506.8 166.4 510.1 166.3 513.4 166.3C513.9 168.6 513.7 169 511.3 169.4C507.6 169.9 503.9 170 500.3 168.4C498.7 171.7 502.1 174 501.4 177.4C504.9 177.9 508.1 178.4 511.3 178.6C513.1 178.7 514 179.2 513.5 181.3C508.7 181.9 504.4 181 500.2 179.8ZM355.5 401.2C352.4 402 349.1 402.2 345.7 402.6C346.4 403.2 347.2 403.9 348 404.7C349 405.6 350 406.4 350.8 407.4C352.7 409.6 352.7 411 351.1 413.6C352.5 413.8 353.9 414 355.2 414.3C359.8 415.4 361.7 421.2 358.4 424.7C357.7 425.4 356.5 425.5 355.3 426C355.3 427.4 355.3 428.9 355.3 430.8C354 430.8 352.8 430.8 351.6 430.8C339.1 430.4 326.7 430 314.2 429.6C311.7 429.5 309.1 429.2 306.7 429.5C304.3 429.9 302 431 299.4 431.9C298.4 431 297.4 430.1 296.5 429.3C294.8 430 293.2 431 291.5 431.2C289.7 431.4 287.8 431 285.7 430.8C285.6 433.4 285.4 435.8 285.3 438.2C284.9 446.5 284.5 454.8 284.3 463.1C284.1 468.7 286.3 470.8 291.9 471C311.7 471.8 331.5 472.7 351.2 473.5C356.9 473.7 359 471.8 359.3 466.1C360.3 442.9 361.3 419.8 362.4 396.6C362.4 395.9 362.4 395.1 362.4 394.4C362.1 394.3 361.8 394.1 361.5 394C359.2 396.2 358.9 400.3 355.5 401.2ZM479.7 498.4C480.1 498.2 480.3 497.7 480.7 497.6C484 497.5 484.5 495.1 484.6 492.6C484.8 489.9 484.9 487.1 484.7 484.4C484.3 478 486 472 488.9 466.4C490.7 462.9 492.6 459.5 494.8 456.2C499 449.9 500 443.3 497.7 436.2C493.9 424.5 493.1 412.4 493 400.3C493 399.8 492.9 399.3 492.9 398.4C486 399.3 479.4 395.8 472.5 398.6C471.4 401.6 470.4 404.8 470.3 408.4C470.2 415.9 470 423.5 469.4 431C469.1 434.4 468.1 437.9 467.1 441.2C464.8 448.9 464.4 456.6 466.3 464.5C468.7 474.2 467.5 483.6 463 492.5C461 496.5 460.3 500.3 460.6 504.7C467.6 503.8 473.8 501.6 479.7 498.4ZM218.3 442.1C221.1 442.1 223.3 441.2 225.2 439C227.3 436.8 229.7 434.9 232.1 433.1C233.6 432 234.1 430.8 234.4 429.1C235.7 420.4 234.9 411.8 233.3 403.3C232.1 396.8 230.6 390.3 228.8 383.8C226.9 377 222.8 371.3 219.4 365.2C212.1 365.7 205.4 366.7 199.7 371.7C196.6 374.4 192.4 376 188.6 378.1C192.5 382.8 194.6 388.6 196.9 394.4C198.6 398.8 200.8 403.2 203.3 407.3C206.6 412.6 207.9 418.2 207.6 424.4C207.3 430.1 207.6 435.9 207.6 442C211.8 442.1 215 442.1 218.3 442.1ZM504 248.2C495.8 246.3 487.4 245 479.4 242.4C473.5 240.5 467.2 238 466 230.4C466 230.2 465.7 230.1 465.8 230.1C463.7 232.3 461.6 234.5 459.4 236.6C458.4 237.5 458.5 238.4 458.8 239.5C461.3 247 466 252.7 473.4 255.4C486.6 260.4 500 265.4 514.1 266.2C526.4 266.9 538.6 265.6 548.8 257.2C551 255.4 552.1 253.6 551.8 250.8C551.3 246 551 241.2 550.2 236.5C549.9 234.5 548.8 232.5 547.6 230.9C545.9 228.6 543.7 226.8 541.8 224.7C540.4 223.2 538.7 222.8 536.8 223.4C536.7 223.7 536.6 223.9 536.6 224C537.3 228.2 537.2 228.2 533.7 230.5C526.1 235.5 517.6 237.7 508.7 238.8C508.1 238.9 507.4 239 506.6 239.1C507.4 242.4 508.1 245.5 509 249C507.1 248.8 505.6 248.5 504 248.2ZM493.7 506.6C500.4 505.9 507.2 505.9 514 505.7C515.1 505.7 516.1 505.5 517.4 505.5C515 469 512.6 432.8 510.2 396.3C505.5 397 501 397.7 496.2 398.4C497.1 406.5 497.8 414.4 498.9 422.3C499.7 428 501 433.7 502.1 439.4C503.3 445.8 502.5 451.8 499 457.4C497 460.6 495.2 464 493.3 467.4C490.4 472.7 488.8 478.2 489.1 484.4C489.4 490.4 487.8 495.9 484.1 500.4C485.1 506.3 488.7 507.1 493.7 506.6ZM245.2 307.1C243.6 311.5 241.3 315.4 238.3 318.9C235.2 322.6 233.2 326.7 232.1 331.4C230.1 340.2 227.8 349 225.5 357.8C225.2 359 224.9 360.1 226 361.1C233.2 367.7 236.4 376.4 238.8 385.5C240.9 393.7 242 402.2 243.6 410.6C244.6 416 245.1 421.4 243.9 427.3C246.7 426.4 249 425.7 251.4 424.9C251.2 420.6 250.8 416.3 250.7 412.1C250.4 402.4 250.2 392.6 249.9 382.9C249.6 376.2 249.3 369.6 248.7 363C247.8 352.6 248.9 342.4 251.8 332.5C253.9 325.3 255.6 317.9 259.2 311.2C262.7 304.6 265.8 297.7 269.2 290.7C257.9 291.7 249.2 296 245.2 307.1ZM295.4 388.8C295.3 392.5 295.6 392.8 299.1 394.3C300 394.7 300.8 395.5 301.6 396.3C305.1 399.8 308.4 403.5 311.9 406.8C317.7 412.2 322.2 412.9 329.1 408.8C334.4 405.6 339.4 401.9 344.6 398.5C346 397.6 347.6 396.8 349.2 396.2C350.9 395.5 352 394.5 352.1 392.6C352.3 390.6 352.4 388.7 352.5 386.7C353.2 371.6 353.8 356.6 354.4 341.5C354.6 337.3 353.3 335.8 349 335.6C339.2 335.1 329.3 334.8 319.5 334.3C314 334.1 308.6 333.8 303.1 333.6C298.9 333.5 297.7 334.7 297.5 338.9C297.1 347.3 296.8 355.7 296.4 364.1C296 372.4 295.7 380.6 295.4 388.8ZM352.5 423.4C353.8 423 355 422.7 356.2 422.4C357.4 418.1 357 417.3 352.8 417C347 416.6 341.2 416.6 335.4 416.4C329.9 416.2 324.5 416.3 319 415.8C315.7 415.5 312.5 414.7 309.3 413.8C306.4 413 306.1 411.3 307.9 407.5C307.8 407.3 307.7 407.1 307.6 406.9C304.6 402.6 300.5 401.3 295.2 401.8C290.1 402.3 285 401.6 279.8 401.4C279 401.4 278.3 401.4 277.2 401.4C276.9 402.7 276.5 404 276.4 405.2C276 411.5 275.6 417.9 275.2 424.2C275.1 425.8 275.8 426.8 277.3 426.9C281.9 427.4 286.4 427.9 291 428.3C291.8 428.4 292.6 427.9 293.3 427.4C294.3 426.7 295.1 425.9 296.1 425.1C297.4 426.3 298.6 427.4 299.7 428.5C300 428.5 300.3 428.6 300.4 428.5C304.3 426.3 308.5 426.5 312.8 426.7C325.2 427.2 337.5 427.5 349.9 427.9C350.5 427.9 351.2 427.8 352.1 427.7C352.4 426 352.5 424.8 352.5 423.4ZM364 295.4C363 301.9 363.6 308.2 365.3 314.5C366.8 319.9 367.8 325.4 369.2 330.8C370 334 369.3 336.6 367.3 339C366.3 340.2 365.4 341.6 364.1 343.4C366.1 343.5 367.7 343.6 369.5 343.7C369.9 339 370.5 334.5 370.7 329.9C370.8 325.9 372.4 322.5 374.6 319.3C376.4 316.7 378.5 314.3 380.4 311.7C384.9 305.8 389.3 299.8 393.9 293.9C397.5 289.3 401.4 284.8 405.3 280.1C402.2 276.2 398.9 272.1 395.4 267.7C383.7 275.1 371.4 281.2 357.7 285C363.5 287.5 365 289.7 364 295.4ZM290.8 374.7C287.7 370 285 364.9 282.2 360C281.5 358.7 281 357 281.1 355.4C281.1 351.6 281.5 347.8 281.7 343.9C281.7 343.1 281.7 342.2 281.7 341.2C276.6 341.2 271.7 341 266.8 341.3C263 341.5 261.1 344.3 260.4 347.8C259.7 351.8 259.1 355.8 258.8 359.8C258.3 365.6 258.1 371.4 257.8 377.2C257.6 380.2 259 382.4 261.4 383.7C263.6 384.9 266 386.1 268.4 386.2C276 386.6 283.7 386.5 291.4 386.6C291.7 386.6 292 386.4 292.5 386.2C292.9 382.3 293.3 378.5 290.8 374.7ZM421.1 235.1C421.7 239.9 422.4 244.6 422.8 249.2C422.9 250.8 423.7 251.4 425 252C431.2 254.5 437.3 257.1 443.5 259.6C445.3 260.3 447.3 260.7 449.4 261.3C451.1 259.5 452.9 257.7 454.4 255.8C454.9 255.2 454.9 254.2 455 253.4C455.3 250.9 455.6 248.4 455.7 245.9C455.8 245 455.6 244 455.5 243.1C455.4 242.4 455 241.7 454.7 240.9C453.5 237 454.1 235 457.4 232.7C460.2 230.7 461.7 228.1 461.7 224.7C461.7 221.5 457.6 218.6 454.6 219.8C450.6 221.4 446.5 222.1 442.2 222.8C438.9 223.3 435.8 224.4 432.3 224.2C429.8 224 427.5 223.8 425.9 220.4C424.4 226 426.3 231.8 421.1 235.1ZM530.3 269.6C530.9 271.6 531.4 273.3 531.9 275.1C533.6 281.2 533.9 287.4 533.1 293.6C532.1 301.3 533 308.8 534.9 316.3C536 320.6 536.7 325 537.5 329.3C540.9 325.5 544.6 321.7 548 317.6C550.7 314.3 552.1 310.3 552.2 306.1C552.5 296.7 553 287.3 552.8 277.9C552.7 272.5 551.6 267.1 550.8 260.9C544.7 266.1 538 268.7 530.3 269.6ZM348.4 325.1C345.7 323.1 344.6 320.5 344.6 317.2C344.6 312.3 345.8 308.3 351.1 306.8C351.7 306.6 352.2 306.2 352.6 305.5C349.4 305.5 346.1 305.5 342.9 305.5C335.2 305.5 327.6 305.4 319.9 305.6C318.3 305.6 316.5 306.2 315 306.9C313.1 307.7 311.4 309 309.6 310C305 312.7 304.5 319.2 308.5 322.7C309 323.1 309.6 323.5 310 324C313 328.2 317.2 329.2 322.2 329.3C331.9 329.5 341.6 330.4 351.3 330.9C352.2 331 353 330.9 354.7 330.9C352.2 328.6 350.5 326.7 348.4 325.1ZM268 287.7C268.5 287.6 269.1 287.4 269.5 287.1C274.3 283.5 279.1 279.9 283.6 276.6C279.7 270.1 275.8 263.7 271.8 256.9C267 256.9 262 256.7 257 257C252.3 257.3 251.6 258.1 251.5 262.9C251.3 268.5 251.2 274.1 251.2 279.6C251.2 280.9 251.6 282.4 252.3 283.6C253.6 286 255.2 288.2 256.6 290.2C260.6 289.3 264.3 288.5 268 287.7ZM418.2 149.9C419.4 157.2 420.5 164.6 421.5 171.9C421.7 173.3 422.3 174.3 423.4 175.1C425.7 176.7 428 178.4 430.2 180.2C431.7 181.4 433.3 182 435.2 182.2C439.5 182.6 441.8 180.4 441.2 176C440.6 170.7 439.7 165.4 439 160.1C438.6 157.6 438.3 155.1 437.9 152.6C437.1 146.3 433.7 141.9 428 139.3C424.8 137.8 421.4 136.5 418 135.2C417.1 134.9 416.2 134.8 415.3 134.6C416.5 140.1 417.4 145 418.2 149.9ZM473.2 556.2C481.9 556.2 490.6 556.2 499.8 556.2C498.9 548 499.3 539.7 492.2 533.6C490.6 532.2 489.4 530.2 488 528.4C482.2 529.8 476.3 531.3 470.2 532.8C473.5 540.3 471.5 548.4 473.2 556.2ZM277.8 299C282.8 299.2 287.8 299.4 292.8 299.7C298.9 300 305 300.2 311.2 300.5C312.3 300.6 313.6 300.5 314.4 301.1C318.3 304 322.6 302.1 327.1 302.7C327.1 299.5 327.1 296.7 327.1 294C331.7 294 335.8 294 340.1 294C340.1 296.9 340.1 299.5 340.1 302.5C341.4 302.6 342.5 302.6 343.9 302.7C345.1 297.8 343.5 292.7 346.1 287.9C341.3 288.6 336.6 289.3 331.9 289.9C321.4 291.2 311 291.7 300.5 290.6C298.8 290.4 297 290.6 295.3 290.9C290.7 291.8 286.6 289.1 285.7 284.4C285.5 283.4 285.3 282.5 285 281.5C280.8 285.2 278.7 290.5 277.8 299ZM282.9 337.2C284.9 333.4 288.1 332.4 292 333.3C294.1 333.8 295.8 333.6 297.7 332.1C299.1 331 301.5 330.8 303.5 330.7C306.4 330.6 309.3 330.9 313 331.1C310.8 328.9 309.3 326.9 307.4 325.6C302.4 322.3 302.7 317.6 303.6 312.7C303.7 311.9 304.1 311 304.6 309.7C296.9 309.7 289.4 309.7 281.4 309.7C281.4 318.9 281.4 328.4 281.4 337.9C281.7 338.1 282 338.3 282.3 338.6C282.5 338.2 282.7 337.7 282.9 337.2ZM368.4 151.9C353.9 142.3 338.2 135.9 320.6 135.8C305.3 135.7 292.5 141.6 282.2 152.8C281.3 153.8 280.5 154.8 279.8 155.9C277.6 159.2 278 161 281.4 163.8C282.4 162.6 283.3 161.5 284.3 160.3C293.8 148.9 305.8 142.2 320.7 141C328.2 140.4 335.5 142.1 342.6 144.4C351.8 147.4 360.4 151.8 368.6 156.8C369.3 157.2 370 157.6 371 158.2C371 155.5 370.7 153.4 368.4 151.9ZM503.4 245C503.8 245.1 504.2 245.1 505 245.1C504.5 243 504 241.2 503.5 239.3C502 239.2 500.7 239.2 499 239.1C497.6 234.2 496.1 229.2 494.6 224C496.2 223.7 497.6 223.4 499.3 223C498.7 220.6 498.2 218.3 497.6 215.8C489.6 215.8 481.8 216.5 474.1 219.2C474.6 221.3 475 223.3 475.4 225.3C475.4 225.5 475.4 225.9 475.6 225.9C479.6 228.1 478.2 232.1 478.9 235.4C479.2 236.7 479.3 238 479.5 239.6C487.7 241.5 495.6 243.3 503.4 245ZM429.1 137.4C435.2 140.4 439.1 145 440.1 151.9C441.3 160.1 442.5 168.3 443.7 176.6C443.9 177.8 443.4 179.1 443.2 180.6C447.8 179.8 452.5 178.9 456.9 176.9C459.1 175.9 459.6 173.9 459.3 171.7C458.5 165 457.7 158.2 456.8 151.5C456.4 148.4 455.7 145.3 455.3 142.1C455 140 453.9 138.4 452.3 137.3C447.4 133.9 441.9 131.5 436.2 130.3C433.5 129.7 430.6 130.1 427.8 130.5C424.9 130.9 422.1 131.9 418.9 132.8C422.5 134.5 425.8 135.8 429.1 137.4ZM120.4 466.5C127.3 464.1 128.8 460.7 126.2 453.9C126.1 453.6 126 453.3 125.8 453C120.8 445.1 116.4 436.7 108.9 430.6C105.5 427.9 102.2 425 98.7 422C97.9 422.3 97 422.6 96.1 423C92.7 424.6 91.9 427.5 94.3 430.3C99.4 436.1 104.5 442 110 447.5C114.1 451.6 117.3 456.4 120.3 461.3C120.6 461.9 120.4 463 120.1 463.7C119.6 464.8 118.8 465.7 117.8 467.2C119.2 466.9 119.8 466.8 120.4 466.5ZM256.8 353.2C257.1 350.8 257.3 348.4 258 346.1C259.6 340.9 262.7 338.6 268 338.3C271.1 338.1 274.3 338 277.7 337.8C277.8 334.3 278 330.7 278 327.1C278.1 323.6 278 320.1 278 316.4C273.7 316.1 270.4 314.4 270.3 309C269.6 310 268.7 311 268.1 312.1C263.3 321.1 258.5 330.1 256.6 340.1C255.4 346.3 254.8 352.6 254 358.9C253.7 361.2 253.6 363.5 253.2 365.7C252.7 368.7 253.4 371.5 254.5 374.9C255.3 367.2 256 360.2 256.8 353.2ZM465.6 398.4C465.5 399.8 465.4 401.1 465.4 402.3C464.9 410.7 464.6 419.1 463.7 427.5C463.2 431.9 462 436.3 460.6 440.5C459.2 445 458.4 449.3 458.9 454C459.8 462.4 460.8 470.7 459 479.1C457.8 484.8 456.7 490.4 455.5 496.1C454.9 499 454.4 501.9 453.8 505C455.3 505 456.6 505 458.1 505C458.4 502.8 458.5 500.7 458.9 498.7C459.4 496.6 459.8 494.4 460.8 492.5C465.7 483 466.6 473.1 464.1 462.9C462.5 456.3 462.5 449.9 464.5 443.5C467.8 432.7 468.7 421.7 468.4 410.4C468.3 406.4 469.2 402.5 469.6 398.3C468.5 398.4 467.2 398.4 465.6 398.4ZM370.3 150.2C377 146.8 383.9 143.4 391.4 139.6C390.4 138.7 389.9 137.8 389.1 137.5C384.4 135.2 379.6 133 374.8 130.9C374 130.5 372.8 130.5 371.9 130.7C366.8 131.8 362 133.6 357.8 136.7C356.4 137.8 355.2 139.3 353.8 140.8C359.7 144.2 364.9 147.2 370.3 150.2ZM501.3 236.4C503.8 236.2 506.2 236.1 508.7 235.9C516.9 235 524.7 232.9 531.8 228.4C533.5 227.3 534.2 226.2 533.8 224.2C533.1 220.5 532.5 216.8 531.8 212.4C525.7 220.8 516.9 222.6 508.1 224.5C505 225.2 501.9 225.6 498.4 226.3C499.4 229.8 500.3 232.9 501.3 236.4ZM361 391.8C361.6 392 361.9 392.2 362.2 392.2C369 392.6 369.1 392.6 369.5 385.7C369.9 377.1 370.2 368.5 370.5 359.9C370.6 356.5 370.9 353.1 371 349.8C371.1 346.9 370.1 345.9 367.1 345.8C365.6 345.7 364.1 345.8 362.3 345.8C361.8 361.1 361.4 376.5 361 391.8ZM406.9 282C403.5 285.9 399.9 289.3 397.1 293.3C391.6 301.3 385.8 309.1 379.4 316.5C379 316.9 378.7 317.3 378.4 317.8C375.2 321.9 372.7 326.3 372.7 331.8C372.7 336.1 372 340.5 371.7 345.1C373.7 345.3 375.5 345.5 377.6 345.6C376.7 340.5 376.9 335.9 378.3 331.3C378.9 329.4 379.8 327.3 381.2 325.9C385.6 321.3 389 316.2 391.8 310.6C396.4 301.2 402 292.5 409 284.5C408.2 283.6 407.7 283.1 406.9 282ZM239.5 428.8C241.2 428.3 241.8 427.2 242.1 425.5C243.2 419.5 241.8 413.8 241.1 407.9C239.6 396.5 237.5 385.3 232.8 374.6C230.6 369.5 227.3 365.2 223.1 361.2C222.4 362.1 221.8 363 221.1 363.9C227.7 373.6 232.1 384 234.3 395.5C236.4 406.7 238.3 417.9 236.6 429.9C237.9 429.4 238.7 429 239.5 428.8ZM461 268.4C459.2 265.3 457.4 262.2 455.6 259.1C445.1 269 435.6 280 423.8 288.9C433.3 289.4 455 277.4 461 268.4ZM430.3 262.8C431.5 262.3 432.7 262 434.4 261.4C428.4 258 421.8 257.2 417.5 252.8C417.9 250 418.2 247.5 418.5 245.1C418.2 245 417.9 244.9 417.6 244.9C416.3 248.7 416.2 253.1 412.7 255.9C409.4 258.4 406 260.8 402.5 263.4C403.9 265.4 405.3 267.4 406.6 269.3C408 271.2 409.4 273.2 411.1 275.5C415.7 267.8 423.4 265.8 430.3 262.8ZM471.3 393.6C463 393 454.7 392.2 446.8 389.5C433.4 384.9 420.6 379 409.5 370.1C403.4 365.2 396.3 362.1 389.1 359.1C388.2 360.8 389.4 361.1 390.4 361.5C393 362.6 395.7 363.6 398.3 364.8C402.7 366.7 406.4 369.4 409.5 373.1C412.3 376.4 415.6 379.3 418.9 382.2C422.3 385.1 426.3 387.2 430.7 388.4C439 390.6 447.3 393.2 455.6 395.4C462.5 397.2 469.4 396.7 476.4 395.9C476.4 395.5 476.4 395.2 476.5 394.8C474.8 394.2 473.1 393.7 471.3 393.6ZM440 205C441.2 205.5 442.5 205.8 443.7 206.3C443.8 206.1 443.9 205.8 444.1 205.6C442.5 203.5 440.9 201.3 439.3 199.2C438.6 198.2 437.8 197.4 437.1 196.4C433.6 191.5 433.9 188.9 438.2 184.8C431.9 183.8 431.9 183.8 427.4 180.8C426.8 181.3 426.1 181.8 425.4 182.3C424.2 181.8 423.1 181.3 421.5 180.5C422.8 189 424.2 197.1 426.3 205.2C431.3 202.8 435.6 203.2 440 205ZM255 168.3C250 169.2 245.3 170.1 240.2 171C240.3 172.3 240.1 173.6 240.4 174.7C242.5 181.8 244.7 188.9 246.9 196C248.1 199.8 249.4 200.6 253.4 199.9C256.9 199.3 260.4 198.7 264.3 198C261.1 187.9 258.1 178.2 255 168.3ZM263.8 201.2C263.8 206.4 263.7 211.5 263.8 216.6C264.3 233.1 270.3 247.9 278.3 262.1C280.7 266.3 283.5 270.2 286.1 274.2C287 275.7 288.1 275.8 289.6 274C272.8 252.6 266.7 227.7 268 200.3C266.2 200.7 265.1 200.9 263.8 201.2ZM294.2 288.9C297 288.6 299.8 288.5 302.6 288.6C334.8 290.1 365.3 284.4 392.9 266.7C393.2 266.5 393.5 266.2 393.9 265.9C392.8 264.2 391.9 265.5 391.1 265.9C384.3 269.2 377.6 272.6 370.8 275.8C361.3 280.1 351.1 282.2 340.7 283.6C331.7 284.8 322.7 285.5 313.6 286.1C309.6 286.3 305.6 285.6 301.5 285.2C297 284.8 292.4 284.3 287.8 283.9C288.6 287.4 291.3 289.2 294.2 288.9ZM294.6 336.6C293 336.3 291.7 336.1 290.3 335.9C287.4 335.6 285.1 337.4 284.9 340.3C284.4 345.5 284.2 350.7 283.9 356C283.9 356.6 284 357.3 284.4 357.9C287.1 362.7 289.9 367.5 292.7 372.3C292.9 372.2 293.1 372.2 293.3 372.1C293.7 360.3 294.1 348.6 294.6 336.6ZM383.4 153.1C386.6 154.4 388.3 156.1 388.9 158.7C389 159.1 389.1 159.5 389.2 160C389.6 163.4 387.7 166.6 384.9 167.2C382.2 167.8 379.1 165.5 378.3 162C377.5 158.4 378.3 155.4 382.5 153C379 153.4 376.3 153.7 373.3 154C374.3 157.5 375.2 160.8 376.1 164C378 170.8 380 177.7 381.8 184.5C382.3 186.4 383.1 187.3 385.2 187.1C388 186.8 390.9 186.9 393.7 186.7C396.5 186.5 396.9 186 396.5 183.2C396.1 180.5 395.3 177.9 394.7 175.2C393.1 168.5 391.6 161.8 390 155.1C389.8 154.3 389.5 153.5 389.2 152.5C387.5 152.7 385.9 152.8 383.4 153.1ZM437.8 208.6C436.3 208.5 434.9 208.4 433.5 208.3C428.9 208.2 424.4 207.9 420.1 205.9C419.5 205.6 418.5 205.3 417.9 205.6C414.7 207 411.7 208.7 409.9 211.4C413.1 212.9 416.2 214.4 419.3 215.9C420.6 216.5 421.9 217.1 423.2 217.4C428.2 218.6 433.2 219.3 438.6 219.6C438.4 215.8 438.1 212.4 437.8 208.6ZM471.1 187.1C469.7 183.6 469 180.1 469.7 176.1C470.4 172.6 466.7 169.3 461.9 168.5C461.9 169.2 461.9 169.9 462 170.6C462.6 175.6 461 178.5 456.2 180.2C452.2 181.6 448 182.5 443.2 183.8C447.8 184.7 451.8 185.4 455.8 186.4C458.4 187.1 460.9 188.1 463.4 189.1C464.6 189.6 465.7 190.3 466.7 190.9C468.3 189.7 469.6 188.5 471.1 187.1ZM429.9 280.4C434.9 275.6 439.8 270.8 444.7 266.1C445 265.8 445.2 265.4 445.5 265.1C445.3 265 445.2 264.9 445.1 264.8C440.7 262.9 436.8 263.4 433.4 267C432.5 267.9 431.3 268.6 430.2 269.2C425.6 271.7 421.3 274.6 418.5 279.3C418 280.2 416.9 280.8 416 281.7C421 284.5 426.2 283.9 429.9 280.4ZM261.9 162.4C264.4 170.9 266.9 179.3 269.7 188.5C270.7 185.5 271.5 183.3 272.4 180.8C269.7 178.6 268.9 175.4 269.3 171.9C269.8 167.1 273.6 167.5 277.4 167.1C275.7 162.5 274.2 158.2 272.4 153.2C268.4 156.5 265.2 159.4 261.9 162.4ZM382.7 266.2C371.1 271.6 359.2 276.3 346.6 278.8C335.4 281 324.1 282.2 312.7 282.5C304.7 282.8 297.2 281.2 290.7 276.1C289.6 276.9 288.5 277.6 287.5 278.3C288.4 282 288.7 282 291.8 282.2C295.1 282.3 298.3 282.6 301.6 283.1C311.7 284.8 321.7 284 331.7 282.8C339 281.9 346.2 280.6 353.4 279.1C365.2 276.8 375.9 271.5 386.5 266.1C386.4 265.8 386.4 265.4 386.3 265.1C385 265.5 383.8 265.7 382.7 266.2ZM492.4 142.9C493.4 138.7 488.6 132.7 484.3 132.8C481.9 132.8 479 136.2 479.3 138.7C479.5 141 480 143.2 480.1 145.5C480.2 148.4 482 149.8 484.5 150.4C486.6 150.9 488.7 150.9 490.8 151.1C491.3 148 491.8 145.4 492.4 142.9ZM410.1 196.3C413.1 196.4 416.2 196 419.6 195.8C418.8 191.4 418 186.9 417.1 182.1C411.9 184.2 407 186.2 402.1 188.2C402.4 192.4 402.8 196.3 403.2 201C404.9 197.5 407 196.2 410.1 196.3ZM278.7 306.6C279.7 306.5 280.5 306.4 281.4 306.4C289.9 306.6 298.4 306.8 307 307.1C309.8 307.2 311.5 305.5 314.1 303.8C312.6 303.6 311.8 303.4 311 303.4C300.1 302.9 289.2 302.4 278.2 302C277.2 302 275.9 302.4 275.1 303.1C273.8 304.2 273.2 310.6 274.3 311.8C275.2 312.7 276.6 313.1 278.3 313.9C278.5 310.9 278.6 308.9 278.7 306.6ZM509.4 155.2C510.1 153 511.9 151.2 509.9 148.6C507.5 145.6 505.6 142.2 501.1 142.2C500.6 142.2 500 142.1 499.5 142.3C498 142.7 496 141.9 495.2 143.9C494.3 146.2 493.4 148.5 495 151.1C497 154.3 499.4 156.4 503.4 156C505.3 155.8 507.3 155.8 508.9 155.7C509.2 155.4 509.4 155.3 509.4 155.2ZM358.3 334C357.1 334 356.1 334 355.2 334C357.4 336.3 359.6 338.6 362 341.2C363.2 339.5 364.8 337.7 366 335.7C366.5 334.8 366.7 333.4 366.5 332.3C364.5 323.3 362.4 314.3 360.3 305.3C360.1 305.3 359.9 305.3 359.7 305.2C359.3 314.7 358.8 324.3 358.3 334ZM360.5 301.7C360.9 298.5 361.3 295.6 361.5 292.7C361.6 290.7 360.2 288.9 358 288.5C356.5 288.2 355 288.2 353.4 288.3C348.7 288.6 347.5 289.9 347.3 294.6C347.2 296.6 347.3 298.5 347.3 300.9C351.8 301.1 356.1 301.4 360.5 301.7ZM383.9 363.7C384.4 359 384.9 354.5 385.4 349.5C381.9 349.1 378.5 348.7 374.6 348.3C374.1 353 373.6 357.6 373.1 362.6C376.7 362.9 380.2 363.3 383.9 363.7ZM350.6 309.5C346.7 311.4 345.1 318.7 348.1 321.9C350.4 324.3 353 326.4 356 329.1C356.3 321.5 356.6 314.3 356.9 306.6C354.4 307.8 352.5 308.6 350.6 309.5ZM358 392.1C358.5 376.7 358.9 361.3 359.3 345.8C359.4 343.9 359 342.2 357.3 340.3C357.1 344.6 356.9 348.4 356.7 352.1C356.2 364.8 355.6 377.5 355.2 390.1C355.1 394.1 354.1 397.4 349.5 399.1C355.2 399.2 357.8 396.9 358 392.1ZM476.1 137.5C475.6 134.3 470.2 132.1 467.7 134.1C467 134.6 466.5 135.8 466.5 136.6C466.4 139.6 466.5 142.7 466.8 145.7C466.9 146.6 468 147.7 468.9 148.2C471.5 149.6 474.3 149.5 477.5 148.7C477.1 144.8 476.7 141.1 476.1 137.5ZM463.6 556.1C465.8 556.1 467.7 556.1 470 556.1C469.6 550 469.5 543.9 468.8 537.9C468.3 533.4 466.3 532 461 531.7C464 539.7 464 547.8 463.6 556.1ZM405.7 241.6C404.4 244 406.5 249.9 408.9 251.3C410.5 252.2 412.1 251.8 413.3 249.9C415.4 246.7 415.8 243.2 415.2 239.5C414.7 236.9 413.9 234.5 411.1 232.7C409.2 235.8 407.3 238.6 405.7 241.6ZM403.4 176.4C401.7 177.2 400.3 177.9 398.7 178.6C399 181 399.4 183.3 399.7 185.8C400.1 185.7 400.6 185.6 400.9 185.5C406.2 183.3 411.6 181.2 417.7 178.7C412.3 175.9 407.4 173.4 402 170.7C402.6 173 403 174.6 403.4 176.4ZM451.3 188.7C448.5 188.1 445.7 187.3 442.9 187C441.8 186.8 440.5 187.3 439.5 187.9C437.5 188.9 437 190.5 438 192.5C439.4 195.5 441.6 197.9 444 200C449.5 197.2 450.7 195.4 451.3 188.7ZM495.7 161.9C495.4 160 495.4 158.1 494.8 156.3C494.4 154.9 493.6 153.4 491.6 153.7C487.9 154.3 484.2 154.2 480.8 152.2C479.3 159.5 487.1 164.4 495.7 161.9ZM497.1 164.9C492.4 165.9 487.2 166.9 482.4 162.7C482.3 166.1 482.8 169 484 171.6C484.3 172.2 485.5 172.8 486.3 172.9C489.9 173.3 493.6 173.5 497.2 173.8C497.1 170.9 497.1 168.1 497.1 164.9ZM441.6 219.4C446 220 449.7 218.5 453.5 217.2C452.8 215.7 452 214.3 451.4 212.8C450.3 209.9 448 208.5 444.9 208.8C443.6 208.9 442.3 208.9 440.7 209C441.1 212.7 441.4 216 441.6 219.4ZM78.3 459.8C78.8 457.8 76.2 455.8 74.4 456.7C72 458 69.8 459.6 67.3 461.2C68.7 464 69.9 466.7 71.5 469.1C72.1 470.1 73.6 470.5 75.2 471.4C76.5 467 77.5 463.4 78.3 459.8ZM350.2 410.8C348.8 407.4 345.5 405.8 343.1 403.2C340.9 404.7 338.8 406.1 336.7 407.5C334.6 408.9 332.5 410.2 329.9 411.8C338.1 412.5 348.1 412.1 350.2 410.8ZM257.5 166.5C260.5 176.2 263.5 185.9 266.6 195.6C268.6 194.9 269.1 193.7 268.5 192C265.7 182.8 263 173.7 260.1 164C259 165 258.3 165.7 257.5 166.5ZM75 474.8C72.2 478.8 72.3 482.6 75.4 485.9C76.8 487.4 78.8 487.6 80.5 486.7C82.7 485.5 84.6 484 87.1 482.2C82.3 479.7 77.3 479.5 75 474.8ZM410.5 279.5C406.7 274.2 402.9 268.8 399.1 263.5C396.7 260.1 394.6 256.5 395.6 251.7C392 255.2 391.7 258.6 394.5 262C400.3 269.1 406.1 276.2 411.8 283.4C413.2 285.1 414.7 286.3 417.2 285.9C413.8 284.9 412.3 282 410.5 279.5ZM58.2 484.9C59.3 486.6 60.3 488.7 61.7 490.4C63.9 493.1 66.4 492.9 68.3 489.9C70.5 486.5 70.5 486.5 66.7 481.7C63.9 482.5 60.3 480.7 58.2 484.9ZM399.3 139.1C401.9 139.1 404.4 139.1 407 139.1C407 138 407 137.1 407 136.1C410 134.2 412.9 132.4 416.1 130.4C408.4 129.1 400.5 133.1 399.3 139.1ZM287.5 389.7C287.3 392.8 287.2 395.8 287 398.9C291.3 398.9 295.2 398.9 299.2 398.9C299.3 398.7 299.5 398.5 299.6 398.3C296.4 396.1 291.9 394.9 292.3 389.7C290.6 389.7 289.2 389.7 287.5 389.7ZM384.1 147.2C387.8 146.9 391.5 146.5 395.5 146.1C396 147.9 396.5 149.6 397.1 151.9C398.7 148.6 400.2 145.8 401.7 142.8C394.8 139.7 389.6 143.9 384.1 147.2ZM471.5 161.5C470.1 167.5 474.1 171.7 480.1 170.3C479.8 167.6 479.5 164.9 479.2 162.1C476.5 161.8 474 161.7 471.5 161.5ZM400.7 203.7C398.3 203.6 396 202.9 394.6 205.4C392.9 208.6 393.6 211.8 395.1 214.8C396.4 217.5 398.8 215.6 401.1 216.4C398.7 211.9 398.7 207.9 400.7 203.7ZM414.5 280.1C417.4 277 419.9 273.8 422.9 271.4C426 268.9 429.6 267.1 433.1 264.9C433 264.7 432.9 264.5 432.8 264.3C431 264.9 429.2 265.5 427.4 266.2C425.4 267.1 423.5 268.1 421.6 269.1C419.8 270.1 417.8 271 416.3 272.3C414.8 273.6 413.7 275.5 412.4 277.2C413.1 278.1 413.7 278.9 414.5 280.1ZM408.8 208.5C410.4 206.9 411.3 205.1 411.8 202.9C412.1 201.7 412.7 200.5 413.2 199.1C412.3 199.1 411.5 199.1 410.7 199.1C407.4 199.2 406 200.2 405.2 203.5C404.4 207 404.7 210.4 405.6 213.7C406.7 212 407.4 209.9 408.8 208.5ZM137 459.1C137 456.5 137 454 137 451.3C133.8 450.9 131.3 452.5 128.6 453.6C128.9 455.1 129.1 456.5 129.4 458C132 458.4 134.4 458.8 137 459.1ZM468.6 151.9C470.3 158.1 472 159.7 478.6 158.7C478.1 156.5 477.7 154.3 477.3 152.4C474.2 152.2 471.4 152.1 468.6 151.9ZM82.8 495.8C85.3 495.9 87.9 496.5 89.3 493.6C90.6 491 90 489 86.9 486.1C85.7 486.9 84.5 487.8 83.6 488.5C83.3 491.3 83.1 493.5 82.8 495.8ZM383.1 164.7C383.8 165 385.1 164.8 385.7 164.3C387.4 162.9 387.4 160.9 386.8 158.9C386.2 156.7 384.6 155.4 382.9 155.6C381.3 155.8 380.2 157.6 380.2 160.3C380.4 162 381.1 163.9 383.1 164.7ZM398.3 230.9C400.3 231.2 401.7 230.2 402.5 228.3C403.4 226.2 404.5 224.2 405.2 222C406.1 219.2 405.6 218.7 402.7 218.8C402.3 218.8 401.9 218.9 401.4 219C400.3 223 399.3 227 398.3 230.9ZM72.6 488.4C72.4 489.1 72.3 490.1 71.8 491C70.9 492.9 71.8 493.9 73.5 494.3C75.4 494.7 77.3 494.9 79.5 495.2C79.9 493.4 80.3 491.9 80.6 490.6C77.7 489.8 75.2 489.1 72.6 488.4ZM330.1 296.9C330 298.7 329.9 300.5 329.8 302.5C332.3 302.5 334.5 302.5 337.1 302.5C337.2 300.8 337.3 299.1 337.4 296.9C334.8 296.9 332.6 296.9 330.1 296.9ZM416.6 224.5C415 227.2 416.5 229.4 418.1 231.8C422.3 228.7 420 224.1 421.7 220.1C418 220 417.7 222.7 416.6 224.5ZM266.6 154.6C265.1 155.3 264.1 155.8 263.1 156.1C260.7 157 258.4 158.3 255.9 158.7C252.1 159.3 251.5 159.3 248.9 162.9C255.3 161.5 262.2 161.5 266.6 154.6ZM476.2 237.1C476 234.9 475.7 232.8 475.5 230.6C473.2 230 471 229.5 468.9 229C469.3 233.1 471 236.2 476.2 237.1ZM403.5 129.8C400 129.5 394.4 132.5 393.2 135.2C392.3 137.2 393.4 138.5 396.4 138.6C396.8 134.1 400 132 403.5 129.8ZM387 262.6C388.5 262.7 389.8 260.7 389.8 258.5C389.8 256.5 388.6 254.5 387.3 254.4C385.8 254.3 384.5 256.3 384.5 258.5C384.5 260.6 385.7 262.5 387 262.6ZM401.2 261.5C404.6 259.1 407.9 256.7 411.7 254.1C408.4 253.4 406.1 253.6 404.2 255.9C403 257.3 401.5 258.4 400.1 259.7C400.4 260.3 400.7 260.7 401.2 261.5ZM403.1 244.8C401.6 246.6 400 248 399.1 249.8C398.2 251.4 399 252.2 400.8 252.2C402.4 252.2 404 252 405.8 251.8C404.8 249.3 404 247.3 403.1 244.8ZM91.4 486.7C92.2 488.4 93.5 488.7 94.8 487.9C95.7 487.3 96.9 485.8 96.8 485C96.5 483.8 95.1 482.1 94.2 482.1C92.7 482.1 91.2 483.3 89.5 484.1C90.3 485.2 91 485.9 91.4 486.7ZM59.9 479.2C61.8 479.1 63.6 479 65.4 478.9C65.3 475.5 65.3 475.5 58.3 474.5C58.8 476.2 59.3 477.6 59.9 479.2ZM276.9 170.5C276.8 170.3 276.7 170.1 276.6 169.9C275.2 170.4 273.2 170.4 272.5 171.4C271.2 173.3 272 175.5 273.4 177.8C274.6 175.1 275.7 172.8 276.9 170.5ZM418.5 199.2C416.1 199.3 415.4 201.5 414.3 204C417.1 202.5 419.5 201.9 422.1 203.3C421.6 201.2 420.8 199.1 418.5 199.2ZM243.5 166.4C246.4 167.6 254.7 165.8 256.9 163.5C252.3 164.5 248.1 165.4 243.5 166.4ZM253.4 155C256.2 156.4 258.4 156 261.6 153.3C258.3 152.4 255.8 153 253.4 155ZM414.2 139.6C412.7 139.7 411.2 139.8 409.8 139.9C409.7 140.2 409.6 140.5 409.6 140.8C411.2 141.6 412.9 142.5 415.1 143.6C414.7 142 414.5 141 414.2 139.6ZM68.1 476.2C68.6 477.6 69 478.9 69.6 480.7C70.2 478.2 70.7 476.2 71.3 473.9C70.2 474.7 69.2 475.4 68.1 476.2ZM402.8 254.3C400.9 254.4 399.8 254.5 398.3 254.6C398.4 255.7 398.6 256.5 398.7 258C400.3 256.5 401.3 255.6 402.8 254.3ZM313.6 412.2C312.2 411 311.1 410.1 309.8 408.9C308.8 411.8 308.9 411.8 313.6 412.2ZM114.4 464.6C118.4 463.5 118.4 463.5 117 460.9C116.2 462.1 115.4 463.2 114.4 464.6ZM399.9 233.5C397.7 234.6 397.4 235 397.2 238.8C398 237.1 398.9 235.4 399.9 233.5ZM381.7 263.7C381.8 263.8 382.1 264 382.1 264C382.4 263.8 382.6 263.6 382.9 263.3C382.7 263.1 382.6 263 382.4 262.8C382.2 263.1 381.9 263.4 381.7 263.7Z" fill="white"/>
<path id="XMLID_372_" d="M416.2 418.5C416.4 421.6 415.1 423.8 412.3 425.1C407.3 427.5 402.2 429.8 397.2 432.2C395.3 433.1 393.4 433.1 391.5 432.2C387.7 430.4 384 428.7 380.3 426.8C378.6 425.9 377.5 424.5 377.3 422.4C376.8 415.5 376.1 408.7 375.7 401.8C375.6 399.5 375.9 397.2 376.4 395C378.2 387.7 384.3 380.1 395.6 382.8C398.3 383.5 401 384.4 403.6 385.6C409.1 388 412.6 392.3 414.3 398.1C415.8 403.2 416.6 408.3 416.2 413.6C416.1 415.3 416.1 416.9 416.2 418.5ZM380.1 421.3C380.2 422.9 380.8 424 382.2 424.6C385.4 426.1 388.4 427.8 391.7 429.1C393.2 429.7 395.3 429.8 396.7 429.2C401.4 427.3 406 424.9 410.7 422.8C412.6 421.9 413.4 420.5 413.3 418.4C413 413.2 413.1 407.9 412.5 402.7C410.9 390.6 401.5 385.9 391.2 385.4C385.8 385.1 382.5 388.3 380.3 392.8C378.4 396.8 378.2 401 378.6 405.3C379 410.6 379.6 416 380.1 421.3Z" fill="white"/>
<path id="XMLID_371_" d="M484.6 509.1C480.7 510.2 476.9 511.6 472.9 512.4C469.3 513.2 465.6 513.7 461.9 513.7C455 513.8 448.1 513 441.2 513.5C433.8 514.1 426.4 515.4 419.2 517C402 520.8 384.5 521.8 367 521.9C354.9 522 342.7 521.9 330.6 521.7C309.8 521.3 289.5 517.6 269.7 511.3C266.8 510.4 263.8 509.5 260.9 508.6C259.7 508.2 258.8 508.2 258.7 510.1C261.6 511 264.4 512 267.3 512.8C280.5 516.8 293.7 520.8 307.5 522C319.8 523.1 332.2 524 344.5 524.1C361 524.2 377.6 524 394.1 522.9C404.2 522.3 414.2 520.2 424.2 518.1C433.8 516.1 443.4 515.1 453.2 515.8C463.3 516.5 473.1 515.6 482.6 511.9C484.2 511.3 485.2 510.8 484.5 509L484.6 509.1Z" fill="white"/>
<path id="XMLID_368_" d="M301.1 439C306 439 310.4 443.7 310.3 449C310.3 454.3 306.2 458.7 301.3 458.9C296.3 459 292.1 454.6 292 449.1C292 443.5 296.1 439 301.1 439ZM301.1 456.7C305.1 456.7 308.1 453.2 308 448.7C307.9 444.4 304.7 441.2 300.9 441.3C297.1 441.4 294 444.9 294.1 449.1C294.2 453.3 297.3 456.7 301.1 456.7Z" fill="white"/>
<path id="XMLID_365_" d="M343.3 460.5C338.4 460.4 334.3 456 334.3 450.6C334.3 445.1 338.4 440.7 343.5 440.7C348.6 440.7 352.7 445.1 352.6 450.7C352.6 456.1 348.3 460.6 343.3 460.5ZM343.3 458.3C347.1 458.5 350.5 454.8 350.6 450.6C350.6 446.4 347.3 442.7 343.5 442.8C339.8 442.9 336.6 446.4 336.6 450.5C336.4 454.5 339.6 458.2 343.3 458.3Z" fill="white"/>
<path id="XMLID_362_" d="M315.5 450.2C315.5 446.5 318.5 443.8 322.3 443.8C326.1 443.8 329 446.7 329 450.3C329 453.9 325.9 456.8 322.1 456.7C318.4 456.8 315.5 453.9 315.5 450.2ZM317.7 450.2C317.7 452.7 319.8 454.7 322.4 454.6C324.9 454.6 326.9 452.7 326.9 450.3C326.9 447.9 324.8 445.8 322.2 445.9C319.7 446 317.7 447.9 317.7 450.2Z" fill="white"/>
<path id="XMLID_359_" d="M301.5 364.5C301.8 358.2 302.1 351.8 302.4 345.5C302.7 340.2 304.3 338.7 309.5 338.9C320.2 339.3 330.9 339.8 341.6 340.2C346.5 340.4 348.2 342.2 348 347.1C347.5 359.7 347 372.2 346.5 384.8C346.3 389.5 344.3 391.2 339.7 391.1C328.8 390.6 317.8 390.2 306.9 389.7C302.4 389.5 300.6 387.7 300.8 383.1C301 376.9 301.3 370.7 301.5 364.5C301.5 364.5 301.6 364.5 301.5 364.5ZM309 341C305.6 340.9 304.7 341.8 304.6 345.1C304 357.7 303.5 370.2 302.9 382.8C302.7 386.3 303.7 387.4 307.1 387.6C317.8 388.1 328.5 388.5 339.3 388.9C343.6 389.1 344.3 388.5 344.5 384.1C345.1 371.9 345.6 359.6 346.1 347.4C346.3 343.2 345.5 342.5 341.3 342.3C335.9 342.1 330.6 341.8 325.2 341.6C325.2 341.6 325.2 341.6 325.2 341.7C319.7 341.4 314.4 341.2 309 341Z" fill="white"/>
<path id="XMLID_356_" d="M321 410.2C317.1 410.2 314 407.1 314 403.1C314 399.1 317 395.9 320.9 395.8C324.7 395.7 327.9 398.9 327.9 402.9C327.8 407 324.8 410.2 321 410.2ZM316 403.3C316.2 406.1 318.5 408.2 321.2 408.1C323.7 407.9 325.7 405.7 325.7 403C325.7 400.2 323.4 398 320.8 398C318.1 398.1 315.9 400.6 316 403.3Z" fill="white"/>
<path id="XMLID_353_" d="M454.9 146.1C456.1 154.7 457.1 162.8 458.2 171C453.6 172.1 449.3 173.1 444.8 174.2C444.6 173.1 444.3 172.3 444.2 171.4C443.2 164.2 442.2 156.9 441.2 149.3C445.8 148.3 450.2 147.2 454.9 146.1ZM446.5 171.5C449.7 170.7 452.6 170.1 455.9 169.3C455 162.5 454.1 155.7 453.1 148.7C449.9 149.5 447 150.2 443.7 151C444.6 157.9 445.5 164.5 446.5 171.5Z" fill="white"/>
<path id="XMLID_350_" d="M253.5 184.1C256.4 184.1 259.2 187.4 259.2 190.9C259.2 194.2 257 196.7 254.2 196.6C251.1 196.5 248.6 193.3 248.7 189.6C248.8 186.6 250.9 184.1 253.5 184.1ZM253.7 186.4C252.1 186.3 250.9 187.7 250.9 189.7C250.8 192.1 252.6 194.5 254.4 194.4C255.9 194.4 257.1 192.8 257.1 190.9C257.1 188.7 255.4 186.5 253.7 186.4Z" fill="white"/>
<path id="XMLID_347_" d="M249.5 170.2C252.3 170.3 254.8 173.3 254.8 176.7C254.8 179.8 252.9 182.2 250.4 182.3C247.5 182.4 244.8 179.4 244.8 175.8C244.8 172.5 246.8 170.1 249.5 170.2ZM250.1 180C251.5 180 252.6 178.7 252.7 176.8C252.8 174.6 251 172.2 249.3 172.3C248 172.4 246.9 173.9 246.9 175.7C246.9 177.9 248.5 180 250.1 180Z" fill="white"/>
<path id="XMLID_344_" d="M385.1 170.3C387.1 169.2 388.9 169.7 390.6 170.9C393.8 173.2 394.9 178.4 392.9 181.8C391.2 184.7 388.1 185.4 385.4 183.5C383 181.8 382 179.3 382 176.4C382 173.8 382.8 171.6 385.1 170.3ZM386.4 181.4C388 183.1 390.4 182.6 391.1 180.4C391.6 178.7 391.5 176.7 391.1 175C390.5 172.7 388.3 171.6 386.6 172C385 172.4 384 174.2 383.6 176.8C384.5 178.4 385.2 180.1 386.4 181.4Z" fill="white"/>
<path id="XMLID_343_" d="M465 203.1L464.9 202.9V203.1H465Z" fill="white"/>
<path id="XMLID_342_" d="M449.2 194.5C449.3 194.4 449.4 194.2 449.4 194.1C449.4 194.2 449.4 194.3 449.2 194.5Z" fill="white"/>
<path id="XMLID_339_" d="M449.3 194.5L449.1 194.6L449.2 194.5H449.3Z" fill="white"/>
<path id="XMLID_336_" d="M381.6 394.5C382.9 390.5 385.8 387.6 390.3 387C398.4 385.9 407.5 391.4 409.7 399.3C410.8 403.4 411.5 407.7 411.4 411.9C411.2 421 412.8 420 403.6 424.5C393.3 429.6 395.5 429.9 384.2 423.8C384 423.7 383.8 423.6 383.6 423.5C382.2 422.7 381.4 421.5 381.3 419.8C380.9 415.1 380.4 410.4 379.8 404.2C380.2 401.9 380.4 398.1 381.6 394.5ZM407.7 400.4C405.9 393.5 398.6 388.6 391.5 389C388.1 389.2 385.6 391 384.2 393.9C383.1 396.4 382.1 399.3 382.2 402C382.2 407.8 382.9 413.6 383.4 419.3C383.5 420.1 384.3 420.9 384.8 421.7C385 421.9 385.3 422.1 385.6 422.2C395.8 427.4 392.7 427.3 402.3 422.7C402.4 422.7 402.5 422.6 402.6 422.6C410.6 418.5 408.8 419.9 409.6 411.9C409.1 408.1 408.7 404.1 407.7 400.4Z" fill="white"/>
</g>
</g>
</g>
</g>
<defs>
<clipPath id="clip0">
<rect width="560" height="560" fill="white"/>
</clipPath>
</defs>
</svg>
